<mxfile host="app.diagrams.net" modified="2023-08-04T00:26:38.412Z" agent="Mozilla/5.0 (Windows NT 10.0; Win64; x64) AppleWebKit/537.36 (KHTML, like Gecko) Chrome/115.0.0.0 Safari/537.36" etag="qBuRf32tP2w9D5nvMM67" version="21.6.5" type="device">
  <diagram name="PÃ¡gina-1" id="ZYWdPx17LXk2qxdffnfS">
    <mxGraphModel dx="1120" dy="446" grid="1" gridSize="10" guides="1" tooltips="1" connect="1" arrows="1" fold="1" page="1" pageScale="1" pageWidth="827" pageHeight="1169" math="0" shadow="0">
      <root>
        <mxCell id="0" />
        <mxCell id="1" parent="0" />
        <mxCell id="cIn7obzlb7MuWHMUhkkz-39" value="" style="rounded=0;whiteSpace=wrap;html=1;" vertex="1" parent="1">
          <mxGeometry x="30" y="40" width="580" height="1060" as="geometry" />
        </mxCell>
        <mxCell id="cIn7obzlb7MuWHMUhkkz-4" value="" style="group" vertex="1" connectable="0" parent="1">
          <mxGeometry x="80" y="80" width="580" height="580" as="geometry" />
        </mxCell>
        <mxCell id="cIn7obzlb7MuWHMUhkkz-1" value="&lt;font style=&quot;font-size: 18px;&quot; color=&quot;#ffffff&quot;&gt;API&lt;/font&gt;" style="rounded=1;whiteSpace=wrap;html=1;fillColor=#001933;" vertex="1" parent="cIn7obzlb7MuWHMUhkkz-4">
          <mxGeometry width="200" height="100" as="geometry" />
        </mxCell>
        <mxCell id="cIn7obzlb7MuWHMUhkkz-2" value="" style="image;sketch=0;aspect=fixed;html=1;points=[];align=center;fontSize=12;image=img/lib/mscae/Docker.svg;" vertex="1" parent="cIn7obzlb7MuWHMUhkkz-4">
          <mxGeometry x="140" y="35" width="36.59" height="30" as="geometry" />
        </mxCell>
        <mxCell id="cIn7obzlb7MuWHMUhkkz-3" value="" style="shape=image;html=1;verticalAlign=top;verticalLabelPosition=bottom;labelBackgroundColor=#ffffff;imageAspect=0;aspect=fixed;image=https://cdn0.iconfinder.com/data/icons/long-shadow-web-icons/512/python-128.png" vertex="1" parent="cIn7obzlb7MuWHMUhkkz-4">
          <mxGeometry x="20" y="30" width="40" height="40" as="geometry" />
        </mxCell>
        <mxCell id="cIn7obzlb7MuWHMUhkkz-41" value="" style="shape=image;html=1;verticalAlign=top;verticalLabelPosition=bottom;labelBackgroundColor=#ffffff;imageAspect=0;aspect=fixed;image=https://cdn0.iconfinder.com/data/icons/social-media-2127/48/social_media_social_media_logo_docker-128.png" vertex="1" parent="cIn7obzlb7MuWHMUhkkz-4">
          <mxGeometry x="386" y="-28" width="128" height="128" as="geometry" />
        </mxCell>
        <mxCell id="cIn7obzlb7MuWHMUhkkz-5" value="" style="group" vertex="1" connectable="0" parent="1">
          <mxGeometry x="80" y="960" width="200" height="100" as="geometry" />
        </mxCell>
        <mxCell id="cIn7obzlb7MuWHMUhkkz-6" value="&lt;font style=&quot;font-size: 18px;&quot; color=&quot;#ffffff&quot;&gt;WEB&lt;/font&gt;" style="rounded=1;whiteSpace=wrap;html=1;fillColor=#001933;" vertex="1" parent="cIn7obzlb7MuWHMUhkkz-5">
          <mxGeometry width="200" height="100" as="geometry" />
        </mxCell>
        <mxCell id="cIn7obzlb7MuWHMUhkkz-7" value="" style="image;sketch=0;aspect=fixed;html=1;points=[];align=center;fontSize=12;image=img/lib/mscae/Docker.svg;" vertex="1" parent="cIn7obzlb7MuWHMUhkkz-5">
          <mxGeometry x="140" y="35" width="36.59" height="30" as="geometry" />
        </mxCell>
        <mxCell id="cIn7obzlb7MuWHMUhkkz-8" value="" style="shape=image;html=1;verticalAlign=top;verticalLabelPosition=bottom;labelBackgroundColor=#ffffff;imageAspect=0;aspect=fixed;image=https://cdn0.iconfinder.com/data/icons/long-shadow-web-icons/512/python-128.png" vertex="1" parent="cIn7obzlb7MuWHMUhkkz-5">
          <mxGeometry x="20" y="30" width="40" height="40" as="geometry" />
        </mxCell>
        <mxCell id="cIn7obzlb7MuWHMUhkkz-9" value="" style="group" vertex="1" connectable="0" parent="1">
          <mxGeometry x="80" y="250" width="200" height="100" as="geometry" />
        </mxCell>
        <mxCell id="cIn7obzlb7MuWHMUhkkz-10" value="&lt;font color=&quot;#ffffff&quot;&gt;&lt;span style=&quot;font-size: 18px;&quot;&gt;Rabbit&lt;/span&gt;&lt;/font&gt;" style="rounded=1;whiteSpace=wrap;html=1;fillColor=#001933;" vertex="1" parent="cIn7obzlb7MuWHMUhkkz-9">
          <mxGeometry width="200" height="100" as="geometry" />
        </mxCell>
        <mxCell id="cIn7obzlb7MuWHMUhkkz-11" value="" style="image;sketch=0;aspect=fixed;html=1;points=[];align=center;fontSize=12;image=img/lib/mscae/Docker.svg;" vertex="1" parent="cIn7obzlb7MuWHMUhkkz-9">
          <mxGeometry x="140" y="35" width="36.59" height="30" as="geometry" />
        </mxCell>
        <mxCell id="cIn7obzlb7MuWHMUhkkz-13" value="" style="group" vertex="1" connectable="0" parent="1">
          <mxGeometry x="80" y="500" width="200" height="100" as="geometry" />
        </mxCell>
        <mxCell id="cIn7obzlb7MuWHMUhkkz-14" value="&lt;font color=&quot;#ffffff&quot;&gt;&lt;span style=&quot;font-size: 18px;&quot;&gt;Crawler&lt;/span&gt;&lt;/font&gt;" style="rounded=1;whiteSpace=wrap;html=1;fillColor=#001933;" vertex="1" parent="cIn7obzlb7MuWHMUhkkz-13">
          <mxGeometry width="200" height="100" as="geometry" />
        </mxCell>
        <mxCell id="cIn7obzlb7MuWHMUhkkz-15" value="" style="image;sketch=0;aspect=fixed;html=1;points=[];align=center;fontSize=12;image=img/lib/mscae/Docker.svg;" vertex="1" parent="cIn7obzlb7MuWHMUhkkz-13">
          <mxGeometry x="140" y="35" width="36.59" height="30" as="geometry" />
        </mxCell>
        <mxCell id="cIn7obzlb7MuWHMUhkkz-16" value="" style="shape=image;html=1;verticalAlign=top;verticalLabelPosition=bottom;labelBackgroundColor=#ffffff;imageAspect=0;aspect=fixed;image=https://cdn0.iconfinder.com/data/icons/long-shadow-web-icons/512/python-128.png" vertex="1" parent="cIn7obzlb7MuWHMUhkkz-13">
          <mxGeometry x="20" y="30" width="40" height="40" as="geometry" />
        </mxCell>
        <mxCell id="cIn7obzlb7MuWHMUhkkz-17" value="" style="group" vertex="1" connectable="0" parent="1">
          <mxGeometry x="380" y="500" width="200" height="100" as="geometry" />
        </mxCell>
        <mxCell id="cIn7obzlb7MuWHMUhkkz-18" value="&lt;font color=&quot;#ffffff&quot;&gt;&lt;span style=&quot;font-size: 18px;&quot;&gt;Redis&lt;/span&gt;&lt;/font&gt;" style="rounded=1;whiteSpace=wrap;html=1;fillColor=#001933;" vertex="1" parent="cIn7obzlb7MuWHMUhkkz-17">
          <mxGeometry width="200" height="100" as="geometry" />
        </mxCell>
        <mxCell id="cIn7obzlb7MuWHMUhkkz-19" value="" style="image;sketch=0;aspect=fixed;html=1;points=[];align=center;fontSize=12;image=img/lib/mscae/Docker.svg;" vertex="1" parent="cIn7obzlb7MuWHMUhkkz-17">
          <mxGeometry x="140" y="35" width="36.59" height="30" as="geometry" />
        </mxCell>
        <mxCell id="cIn7obzlb7MuWHMUhkkz-21" value="" style="group" vertex="1" connectable="0" parent="1">
          <mxGeometry x="80" y="770" width="200" height="100" as="geometry" />
        </mxCell>
        <mxCell id="cIn7obzlb7MuWHMUhkkz-22" value="&lt;font color=&quot;#ffffff&quot;&gt;&lt;span style=&quot;font-size: 18px;&quot;&gt;Elastic&lt;/span&gt;&lt;/font&gt;" style="rounded=1;whiteSpace=wrap;html=1;fillColor=#001933;" vertex="1" parent="cIn7obzlb7MuWHMUhkkz-21">
          <mxGeometry width="200" height="100" as="geometry" />
        </mxCell>
        <mxCell id="cIn7obzlb7MuWHMUhkkz-23" value="" style="image;sketch=0;aspect=fixed;html=1;points=[];align=center;fontSize=12;image=img/lib/mscae/Docker.svg;" vertex="1" parent="cIn7obzlb7MuWHMUhkkz-21">
          <mxGeometry x="140" y="35" width="36.59" height="30" as="geometry" />
        </mxCell>
        <mxCell id="cIn7obzlb7MuWHMUhkkz-25" value="" style="image;aspect=fixed;perimeter=ellipsePerimeter;html=1;align=center;shadow=0;dashed=0;spacingTop=3;image=img/lib/active_directory/internet_globe.svg;" vertex="1" parent="1">
          <mxGeometry x="670" y="500" width="100" height="100" as="geometry" />
        </mxCell>
        <mxCell id="cIn7obzlb7MuWHMUhkkz-27" value="" style="edgeStyle=orthogonalEdgeStyle;rounded=0;orthogonalLoop=1;jettySize=auto;html=1;" edge="1" parent="1" source="cIn7obzlb7MuWHMUhkkz-1" target="cIn7obzlb7MuWHMUhkkz-10">
          <mxGeometry relative="1" as="geometry">
            <Array as="points">
              <mxPoint x="180" y="270" />
              <mxPoint x="180" y="270" />
            </Array>
          </mxGeometry>
        </mxCell>
        <mxCell id="cIn7obzlb7MuWHMUhkkz-29" style="edgeStyle=orthogonalEdgeStyle;rounded=0;orthogonalLoop=1;jettySize=auto;html=1;" edge="1" parent="1" source="cIn7obzlb7MuWHMUhkkz-1" target="cIn7obzlb7MuWHMUhkkz-10">
          <mxGeometry relative="1" as="geometry" />
        </mxCell>
        <mxCell id="cIn7obzlb7MuWHMUhkkz-32" style="edgeStyle=orthogonalEdgeStyle;rounded=0;orthogonalLoop=1;jettySize=auto;html=1;entryX=0;entryY=0.5;entryDx=0;entryDy=0;" edge="1" parent="1" source="cIn7obzlb7MuWHMUhkkz-15">
          <mxGeometry relative="1" as="geometry">
            <mxPoint x="400" y="550" as="targetPoint" />
          </mxGeometry>
        </mxCell>
        <mxCell id="cIn7obzlb7MuWHMUhkkz-33" style="edgeStyle=orthogonalEdgeStyle;rounded=0;orthogonalLoop=1;jettySize=auto;html=1;" edge="1" parent="1" source="cIn7obzlb7MuWHMUhkkz-18" target="cIn7obzlb7MuWHMUhkkz-25">
          <mxGeometry relative="1" as="geometry" />
        </mxCell>
        <mxCell id="cIn7obzlb7MuWHMUhkkz-35" style="edgeStyle=orthogonalEdgeStyle;rounded=0;orthogonalLoop=1;jettySize=auto;html=1;" edge="1" parent="1" source="cIn7obzlb7MuWHMUhkkz-14" target="cIn7obzlb7MuWHMUhkkz-10">
          <mxGeometry relative="1" as="geometry" />
        </mxCell>
        <mxCell id="cIn7obzlb7MuWHMUhkkz-36" style="edgeStyle=orthogonalEdgeStyle;rounded=0;orthogonalLoop=1;jettySize=auto;html=1;entryX=0.5;entryY=0;entryDx=0;entryDy=0;" edge="1" parent="1" source="cIn7obzlb7MuWHMUhkkz-14" target="cIn7obzlb7MuWHMUhkkz-22">
          <mxGeometry relative="1" as="geometry" />
        </mxCell>
        <mxCell id="cIn7obzlb7MuWHMUhkkz-37" style="edgeStyle=orthogonalEdgeStyle;rounded=0;orthogonalLoop=1;jettySize=auto;html=1;" edge="1" parent="1" source="cIn7obzlb7MuWHMUhkkz-6" target="cIn7obzlb7MuWHMUhkkz-22">
          <mxGeometry relative="1" as="geometry" />
        </mxCell>
        <mxCell id="cIn7obzlb7MuWHMUhkkz-40" value="&lt;b&gt;&lt;font style=&quot;font-size: 14px;&quot;&gt;Docker Compose&lt;/font&gt;&lt;/b&gt;" style="text;html=1;strokeColor=none;fillColor=none;align=center;verticalAlign=middle;whiteSpace=wrap;rounded=0;" vertex="1" parent="1">
          <mxGeometry x="460" y="50" width="140" height="30" as="geometry" />
        </mxCell>
      </root>
    </mxGraphModel>
  </diagram>
</mxfile>
